<svg width="34" height="34" viewBox="0 0 34 34" fill="none" xmlns="http://www.w3.org/2000/svg">
<path d="M10.6667 33.6667C9.75008 33.6667 8.96564 33.3405 8.31341 32.6883C7.66119 32.0361 7.33453 31.2511 7.33341 30.3333C7.3323 29.4155 7.65897 28.6311 8.31341 27.98C8.96786 27.3289 9.7523 27.0022 10.6667 27C11.5812 26.9978 12.3662 27.3244 13.0217 27.98C13.6773 28.6355 14.0034 29.42 14.0001 30.3333C13.9967 31.2467 13.6706 32.0317 13.0217 32.6883C12.3729 33.345 11.5879 33.6711 10.6667 33.6667ZM27.3334 33.6667C26.4167 33.6667 25.6323 33.3405 24.9801 32.6883C24.3279 32.0361 24.0012 31.2511 24.0001 30.3333C23.999 29.4155 24.3256 28.6311 24.9801 27.98C25.6345 27.3289 26.419 27.0022 27.3334 27C28.2479 26.9978 29.0329 27.3244 29.6884 27.98C30.344 28.6355 30.6701 29.42 30.6667 30.3333C30.6634 31.2467 30.3373 32.0317 29.6884 32.6883C29.0395 33.345 28.2545 33.6711 27.3334 33.6667ZM7.66675 3.66666H32.2501C32.889 3.66666 33.3751 3.95166 33.7084 4.52166C34.0417 5.09166 34.0556 5.66777 33.7501 6.25L27.8334 16.9167C27.5279 17.4722 27.1184 17.9028 26.6051 18.2083C26.0917 18.5139 25.529 18.6667 24.9167 18.6667H12.5001L10.6667 22H30.6667V25.3333H10.6667C9.41675 25.3333 8.4723 24.785 7.83341 23.6883C7.19453 22.5917 7.16675 21.5011 7.75008 20.4167L10.0001 16.3333L4.00008 3.66666H0.666748V0.333328H6.08341L7.66675 3.66666Z" fill="white"/>
</svg>
